<?xml version="1.0" standalone="no"?>
<!DOCTYPE svg PUBLIC "-//W3C//DTD SVG 20010904//EN"
 "http://www.w3.org/TR/2001/REC-SVG-20010904/DTD/svg10.dtd">
<svg version="1.0" xmlns="http://www.w3.org/2000/svg"
 width="512.000000pt" height="512.000000pt" viewBox="0 0 512.000000 512.000000"
 preserveAspectRatio="xMidYMid meet">
<metadata>
Created by potrace 1.14, written by Peter Selinger 2001-2017
</metadata>
<g transform="translate(0.000000,512.000000) scale(0.100000,-0.100000)"
fill="#000000" stroke="none">
<path d="M2258 5104 c-82 -19 -182 -70 -227 -114 -21 -21 -52 -65 -67 -97 -27
-56 -28 -63 -25 -183 10 -363 5 -657 -14 -761 -3 -14 -7 -43 -9 -64 -9 -78
-18 -130 -30 -163 l-11 -32 -130 -5 c-144 -5 -188 -10 -287 -30 -128 -27 -206
-83 -263 -186 -24 -45 -29 -67 -31 -134 -3 -97 20 -165 76 -224 66 -70 133
-92 315 -106 44 -3 112 -8 150 -11 39 -3 79 -7 90 -9 11 -1 26 -3 32 -4 10 -1
12 -20 8 -73 -27 -386 -35 -823 -21 -1178 9 -244 15 -324 41 -530 21 -168 60
-318 137 -525 81 -221 119 -275 265 -387 182 -140 365 -223 598 -273 47 -11
314 -14 375 -5 30 4 75 11 100 15 205 30 420 138 523 264 74 91 102 172 99
289 -4 190 -122 297 -287 260 -21 -5 -76 -27 -122 -49 -115 -55 -217 -80 -331
-80 -145 1 -276 43 -350 114 -33 31 -112 153 -116 179 -1 7 -4 18 -8 23 -7 12
-45 149 -53 190 -3 17 -10 57 -15 90 -5 33 -12 71 -14 85 -3 14 -7 48 -10 75
-3 28 -8 73 -11 100 -27 243 -37 737 -21 1110 10 242 14 296 19 302 3 2 50 6
104 8 162 7 326 15 368 20 22 2 72 7 110 10 39 3 81 8 95 10 14 2 45 7 70 10
40 4 158 25 232 40 15 3 40 10 55 16 16 6 29 10 30 10 2 0 19 7 38 15 37 15
101 74 130 118 33 50 54 145 52 235 -2 73 -6 91 -27 121 -31 45 -36 49 -92 89
-85 61 -153 72 -393 66 -115 -3 -230 -7 -255 -9 -70 -5 -329 -19 -388 -21
l-53 -1 5 35 c3 20 12 79 20 131 8 52 18 127 21 165 3 39 8 79 10 90 8 40 18
283 18 425 0 278 -26 389 -113 481 -62 67 -265 98 -412 63z"/>
</g>
</svg>
